<svg width="1783" height="258" viewBox="0 0 1783 258" fill="none" xmlns="http://www.w3.org/2000/svg">
<path fill-rule="evenodd" clip-rule="evenodd" d="M8.78808 0.155716C13.1369 -0.138385 18.2204 0.073466 22.6113 0.0785677L45.2002 0.0893099L115.523 0.0873568L157.616 0.0805208L170.735 0.0727083C172.813 0.072317 176.438 -0.0141589 178.41 0.193802C180.528 0.419629 182.511 1.34212 184.045 2.81685C185.125 3.85832 186.475 6.03792 186.585 7.46724C186.992 12.7953 186.784 19.0993 186.78 24.4545L186.772 62.2963L222.562 62.2778L233.805 62.2524C237.364 62.2426 241.859 61.8001 244.891 63.8491C246.951 65.2236 248.359 67.3846 248.781 69.8256C249.055 71.3816 248.977 74.7481 248.977 76.4497L248.971 87.1225L248.969 125.627L248.963 201.935L248.975 225.853C248.984 230.385 249.043 234.919 248.938 239.449C248.818 244.546 245.45 248.099 240.444 248.713C234.171 249.011 226.38 248.793 220.003 248.791H182.342L74.2344 248.809C70.3202 248.795 67.7542 248.828 64.8096 245.846C61.5786 242.576 62.1332 238.248 62.1387 233.992L62.1523 223.532L62.1807 186.773L26.6934 186.775C21.7335 186.779 16.7645 186.824 11.8096 186.765C8.76012 186.73 6.36296 186.606 3.80078 184.802C-0.685198 181.646 0.0408078 176.865 0.046874 172.123L0.0644521 160.147L0.0654287 117.421L0.0644521 44.8715L0.0615225 21.3022C0.060544 17.3205 -0.0496583 13.2958 0.0761709 9.32076C0.244497 4.00154 3.72872 0.875463 8.78808 0.155716ZM83.8232 62.4809C80.2353 62.4782 74.0746 62.2941 70.6367 62.562C66.1251 63.4211 62.7531 66.2274 62.5635 71.0971C62.3997 75.3001 62.4832 79.5646 62.4863 83.7719L62.4971 107.476L62.4678 186.377L142.729 186.387L166.365 186.395C169.175 186.397 176.365 186.558 178.931 186.2C183.181 185.583 186.345 182.004 186.479 177.714C186.608 173.534 186.557 169.358 186.555 165.174L186.545 141.542L186.564 62.5053L109.029 62.4877L83.8232 62.4809Z" fill="black"/>
<path d="M138.213 134.459C129.585 141.988 125.806 151.767 124.44 162.816C123.763 159.492 123.362 156.28 122.418 153.234C121.457 150.137 120.259 147.03 118.616 144.247C116.972 141.462 114.885 138.832 112.555 136.579C110.261 134.359 107.567 132.44 104.777 130.864C101.947 129.264 98.859 128.01 95.7469 127.038C92.645 126.069 89.3728 125.639 86.1016 124.957C87.7167 124.735 89.3258 124.564 90.917 124.289C108.452 121.26 118.982 110.833 123.247 93.8975C123.911 91.2612 124.173 88.5249 124.576 86.1055C126.406 109.379 139.821 121.791 162.812 125.114C153.741 125.912 145.359 128.46 138.213 134.459Z" fill="#ED1B24"/>
<path d="M294.682 215.934V32.3795H417.482V61.5931H309.935L328.291 42.7206V127L309.935 111.747H412.829V140.702H309.935L328.291 125.449V215.934H294.682ZM429.954 215.934V77.8803H460.978L462.27 116.142L459.426 115.625C461.495 102.354 465.372 92.7886 471.06 86.9287C476.92 80.8964 484.848 77.8803 494.845 77.8803H507.512V106.318H494.586C487.52 106.318 481.66 107.352 477.006 109.421C472.353 111.489 468.819 114.763 466.407 119.245C464.166 123.553 463.046 129.241 463.046 136.307V215.934H429.954ZM556.128 219.036C541.65 219.036 530.016 215.761 521.226 209.212C512.436 202.49 508.042 193.183 508.042 181.291C508.042 169.399 511.747 160.092 519.158 153.37C526.569 146.648 537.858 141.823 553.025 138.893L598.784 129.844C598.784 120.02 596.544 112.695 592.063 107.869C587.582 102.871 580.946 100.372 572.156 100.372C564.228 100.372 557.937 102.268 553.284 106.06C548.803 109.679 545.7 114.936 543.977 121.83L510.368 120.279C513.126 105.629 519.848 94.426 530.533 86.6702C541.219 78.742 555.093 74.7779 572.156 74.7779C591.804 74.7779 606.626 79.7761 616.623 89.7725C626.792 99.5965 631.876 113.729 631.876 132.171V182.325C631.876 185.944 632.479 188.444 633.686 189.822C635.064 191.201 637.046 191.891 639.632 191.891H644.027V215.934C642.993 216.278 641.269 216.537 638.856 216.709C636.616 216.882 634.289 216.968 631.876 216.968C626.188 216.968 621.104 216.106 616.623 214.382C612.142 212.487 608.695 209.298 606.282 204.817C603.869 200.163 602.662 193.873 602.662 185.944L605.506 188.013C604.127 194.045 601.111 199.474 596.458 204.3C591.977 208.953 586.289 212.573 579.395 215.158C572.501 217.743 564.745 219.036 556.128 219.036ZM562.849 194.993C570.26 194.993 576.637 193.528 581.98 190.598C587.323 187.668 591.46 183.618 594.389 178.447C597.319 173.277 598.784 167.158 598.784 160.092V152.336L563.108 159.575C555.697 161.126 550.354 163.453 547.079 166.555C543.977 169.485 542.426 173.363 542.426 178.189C542.426 183.532 544.149 187.668 547.596 190.598C551.215 193.528 556.3 194.993 562.849 194.993ZM655.176 215.934V77.8803H685.165L686.199 111.747L683.096 110.196C684.648 102.785 687.319 96.4942 691.111 91.3237C695.075 85.9808 699.815 81.9305 705.33 79.1729C711.017 76.2429 717.222 74.7779 723.944 74.7779C735.664 74.7779 745.143 78.1388 752.382 84.8605C759.62 91.4098 764.188 100.458 766.084 112.006H761.689C763.24 103.905 765.911 97.1836 769.703 91.8407C773.495 86.3255 778.234 82.1029 783.922 79.1729C789.782 76.2429 796.331 74.7779 803.57 74.7779C813.049 74.7779 821.236 76.8462 828.13 80.9826C835.024 84.9467 840.281 90.8066 843.9 98.5624C847.692 106.318 849.588 115.884 849.588 127.259V215.934H816.496V135.79C816.496 124.415 814.514 115.884 810.55 110.196C806.758 104.509 800.899 101.665 792.97 101.665C787.628 101.665 783.06 103.044 779.268 105.801C775.477 108.559 772.547 112.609 770.479 117.952C768.583 123.122 767.635 129.413 767.635 136.824V215.934H736.87V136.824C736.87 125.449 735.147 116.745 731.7 110.713C728.253 104.681 722.306 101.665 713.861 101.665C708.518 101.665 703.951 103.044 700.159 105.801C696.54 108.559 693.61 112.609 691.369 117.952C689.301 123.122 688.267 129.413 688.267 136.824V215.934H655.176ZM931.775 219.036C917.987 219.036 906.009 216.106 895.84 210.246C885.671 204.214 877.829 195.769 872.314 184.91C866.799 174.052 864.041 161.384 864.041 146.907C864.041 132.429 866.799 119.848 872.314 109.162C877.829 98.3039 885.585 89.8587 895.581 83.8264C905.75 77.7941 917.556 74.7779 930.999 74.7779C944.098 74.7779 955.56 77.7079 965.384 83.5679C975.38 89.4278 983.05 97.873 988.392 108.903C993.735 119.934 996.407 133.205 996.407 148.717V156.214H898.425C899.115 168.278 902.389 177.413 908.249 183.618C914.281 189.65 922.21 192.666 932.034 192.666C939.445 192.666 945.563 191.029 950.389 187.754C955.387 184.307 958.834 179.567 960.73 173.535L994.597 175.603C990.805 189.047 983.308 199.646 972.105 207.402C961.075 215.158 947.631 219.036 931.775 219.036ZM898.425 133.981H962.281C961.592 122.778 958.403 114.505 952.716 109.162C947.028 103.647 939.789 100.889 930.999 100.889C922.21 100.889 914.885 103.733 909.025 109.421C903.337 115.108 899.804 123.295 898.425 133.981ZM1020.14 215.934V32.3795H1135.45V54.0958H1031.26L1042.38 42.7206V127L1031.26 115.625H1130.79V136.824H1031.26L1042.38 125.449V215.934H1020.14ZM1204.88 219.036C1192.3 219.036 1181.27 216.106 1171.79 210.246C1162.31 204.386 1154.98 196.113 1149.81 185.427C1144.64 174.569 1142.06 161.901 1142.06 147.424C1142.06 132.774 1144.64 120.106 1149.81 109.421C1154.98 98.7348 1162.31 90.4619 1171.79 84.602C1181.27 78.742 1192.3 75.812 1204.88 75.812C1217.46 75.812 1228.41 78.742 1237.71 84.602C1247.19 90.4619 1254.52 98.7348 1259.69 109.421C1264.86 120.106 1267.44 132.774 1267.44 147.424C1267.44 161.901 1264.86 174.569 1259.69 185.427C1254.52 196.113 1247.19 204.386 1237.71 210.246C1228.41 216.106 1217.46 219.036 1204.88 219.036ZM1204.88 198.354C1217.46 198.354 1227.2 193.873 1234.09 184.91C1241.16 175.776 1244.69 163.28 1244.69 147.424C1244.69 131.568 1241.16 119.158 1234.09 110.196C1227.2 101.062 1217.46 96.4942 1204.88 96.4942C1192.3 96.4942 1182.47 101.062 1175.41 110.196C1168.34 119.158 1164.81 131.568 1164.81 147.424C1164.81 163.28 1168.34 175.776 1175.41 184.91C1182.47 193.873 1192.3 198.354 1204.88 198.354ZM1286.7 215.934V78.9144H1305.83L1306.86 113.557L1304.79 112.781C1306.52 101.062 1310.22 92.5301 1315.91 87.1872C1321.77 81.672 1329.53 78.9144 1339.18 78.9144H1352.62V99.5965H1339.44C1332.54 99.5965 1326.77 100.889 1322.12 103.474C1317.64 105.887 1314.19 109.593 1311.78 114.591C1309.53 119.417 1308.41 125.622 1308.41 133.205V215.934H1286.7ZM1415.93 257.815C1406.1 257.815 1397.23 256.178 1389.3 252.903C1381.37 249.628 1374.74 244.975 1369.39 238.942C1364.05 232.91 1360.43 225.93 1358.53 218.002L1381.28 216.451C1383.35 222.828 1386.97 227.826 1392.14 231.445C1397.49 235.237 1405.41 237.133 1415.93 237.133C1428.34 237.133 1437.82 234.634 1444.37 229.636C1451.09 224.637 1454.45 217.14 1454.45 207.144V184.91C1451.17 192.149 1445.92 197.923 1438.68 202.232C1431.44 206.54 1423.34 208.695 1414.38 208.695C1402.83 208.695 1392.49 205.851 1383.35 200.163C1374.39 194.476 1367.32 186.634 1362.15 176.638C1357.16 166.641 1354.66 155.18 1354.66 142.253C1354.66 129.155 1357.16 117.693 1362.15 107.869C1367.15 97.873 1374.05 90.031 1382.84 84.3434C1391.8 78.6558 1401.97 75.812 1413.34 75.812C1422.99 75.812 1431.61 78.0526 1439.19 82.5337C1446.95 87.0149 1452.38 93.0472 1455.48 100.631V78.9144H1476.16V206.627C1476.16 217.312 1473.75 226.447 1468.93 234.03C1464.1 241.786 1457.21 247.646 1448.24 251.61C1439.28 255.747 1428.51 257.815 1415.93 257.815ZM1415.41 188.013C1427.13 188.013 1436.52 183.962 1443.59 175.862C1450.66 167.589 1454.28 156.386 1454.45 142.253C1454.62 132.774 1453.07 124.674 1449.79 117.952C1446.69 111.058 1442.12 105.801 1436.09 102.182C1430.23 98.3901 1423.34 96.4942 1415.41 96.4942C1403.35 96.4942 1393.95 100.631 1387.23 108.903C1380.68 117.004 1377.41 128.121 1377.41 142.253C1377.41 156.386 1380.77 167.589 1387.49 175.862C1394.38 183.962 1403.69 188.013 1415.41 188.013ZM1558.11 219.036C1545.19 219.036 1533.98 216.106 1524.5 210.246C1515.2 204.386 1507.96 196.113 1502.79 185.427C1497.79 174.569 1495.29 161.901 1495.29 147.424C1495.29 132.946 1497.79 120.365 1502.79 109.679C1507.96 98.9933 1515.11 90.7204 1524.25 84.8605C1533.55 78.8282 1544.5 75.812 1557.08 75.812C1568.97 75.812 1579.48 78.6558 1588.62 84.3434C1597.75 89.8587 1604.82 97.9592 1609.82 108.645C1614.99 119.331 1617.57 132.343 1617.57 147.683V154.146H1518.04C1518.9 168.796 1522.78 179.826 1529.67 187.237C1536.74 194.648 1546.22 198.354 1558.11 198.354C1567.08 198.354 1574.4 196.286 1580.09 192.149C1585.95 187.84 1590 182.239 1592.24 175.345L1615.51 177.155C1611.89 189.392 1604.99 199.474 1594.82 207.402C1584.83 215.158 1572.59 219.036 1558.11 219.036ZM1518.04 135.015H1593.79C1592.76 121.744 1588.88 112.006 1582.16 105.801C1575.61 99.5965 1567.25 96.4942 1557.08 96.4942C1546.57 96.4942 1537.86 99.7689 1530.97 106.318C1524.25 112.695 1519.94 122.261 1518.04 135.015Z" fill="black"/>
<rect x="1629" y="180.934" width="47.0008" height="47.0008" fill="#ED1B24"/>
</svg>
